<svg width="250" height="238" viewBox="0 0 250 238" fill="none" xmlns="http://www.w3.org/2000/svg">
<rect width="250" height="237" fill="#FFF280"/>
<path d="M125.5 142L167.502 237.25H83.4978L125.5 142Z" fill="#FF8787"/>
<ellipse cx="124" cy="97.5" rx="50" ry="44.5" fill="#7098FF"/>
<path d="M10.612 15.86C10.612 14.324 10.9 13.064 11.476 12.08C12.076 11.072 12.82 10.28 13.708 9.704C14.62 9.104 15.616 8.696 16.696 8.48C17.8 8.24 18.856 8.12 19.864 8.12C20.152 8.12 20.512 8.132 20.944 8.156C21.4 8.18 21.868 8.216 22.348 8.264C22.852 8.312 23.356 8.384 23.86 8.48C24.388 8.552 24.88 8.66 25.336 8.804C25.384 9.428 25.42 10.016 25.444 10.568C25.468 11.096 25.48 11.708 25.48 12.404C25.48 13.1 25.468 13.772 25.444 14.42C25.42 15.044 25.384 15.644 25.336 16.22C25.144 16.196 24.892 16.16 24.58 16.112C24.292 16.064 23.98 16.028 23.644 16.004C23.332 15.98 23.008 15.956 22.672 15.932C22.36 15.908 22.06 15.896 21.772 15.896C20.62 15.896 19.78 16.076 19.252 16.436C18.724 16.796 18.46 17.288 18.46 17.912C18.46 18.272 18.544 18.62 18.712 18.956C18.88 19.268 19.096 19.568 19.36 19.856C19.648 20.144 19.96 20.42 20.296 20.684C20.656 20.948 21.016 21.2 21.376 21.44C21.952 21.848 22.528 22.304 23.104 22.808C23.704 23.288 24.244 23.876 24.724 24.572C25.204 25.244 25.6 26.036 25.912 26.948C26.224 27.836 26.38 28.868 26.38 30.044C26.38 31.58 26.116 32.876 25.588 33.932C25.06 34.988 24.376 35.852 23.536 36.524C22.72 37.172 21.796 37.652 20.764 37.964C19.756 38.252 18.748 38.396 17.74 38.396C17.284 38.396 16.72 38.36 16.048 38.288C15.4 38.24 14.74 38.156 14.068 38.036C13.396 37.94 12.76 37.82 12.16 37.676C11.56 37.508 11.08 37.316 10.72 37.1C10.624 36.668 10.54 36.224 10.468 35.768C10.42 35.312 10.396 34.808 10.396 34.256C10.396 33.872 10.408 33.404 10.432 32.852C10.48 32.3 10.528 31.736 10.576 31.16C10.624 30.584 10.672 30.032 10.72 29.504C10.792 28.976 10.852 28.532 10.9 28.172C11.164 28.316 11.548 28.484 12.052 28.676C12.556 28.844 13.096 29.012 13.672 29.18C14.272 29.348 14.872 29.492 15.472 29.612C16.072 29.732 16.6 29.792 17.056 29.792C17.824 29.792 18.4 29.636 18.784 29.324C19.168 28.988 19.36 28.544 19.36 27.992C19.36 27.392 19.144 26.864 18.712 26.408C18.28 25.928 17.74 25.46 17.092 25.004C16.444 24.548 15.736 24.068 14.968 23.564C14.224 23.036 13.528 22.424 12.88 21.728C12.232 21.032 11.692 20.216 11.26 19.28C10.828 18.32 10.612 17.18 10.612 15.86ZM41.2466 15.212H37.1066C37.0586 17.348 37.0226 19.52 36.9986 21.728C36.9746 23.912 36.9626 26.276 36.9626 28.82C36.9626 30.452 36.9626 31.772 36.9626 32.78C36.9626 33.764 36.9626 34.58 36.9626 35.228C36.9626 35.852 36.9626 36.368 36.9626 36.776C36.9866 37.16 36.9986 37.568 36.9986 38H30.9506C30.9746 36.944 30.9986 35.852 31.0226 34.724C31.0466 33.572 31.0586 32.336 31.0586 31.016C31.0826 29.672 31.0946 28.232 31.0946 26.696C31.1186 25.136 31.1306 23.42 31.1306 21.548C31.1306 20.18 31.1306 18.992 31.1306 17.984C31.1306 16.976 31.1186 16.052 31.0946 15.212H26.9546V8.552H41.2466V15.212ZM54.5531 8.12C55.4171 8.12 56.1611 8.18 56.7851 8.3C57.4331 8.396 58.0331 8.54 58.5851 8.732C58.5851 9.14 58.5851 9.572 58.5851 10.028C58.6091 10.484 58.6211 10.976 58.6211 11.504C58.6211 12.032 58.6091 12.596 58.5851 13.196C58.5851 13.772 58.5851 14.312 58.5851 14.816C57.6731 14.24 56.5811 13.952 55.3091 13.952C54.1091 13.952 53.1011 14.18 52.2851 14.636C51.4931 15.068 50.8451 15.632 50.3411 16.328C49.8611 17.024 49.5131 17.792 49.2971 18.632C49.1051 19.448 49.0091 20.228 49.0091 20.972C49.0091 21.98 49.1651 22.928 49.4771 23.816C49.7891 24.704 50.2211 25.484 50.7731 26.156C51.3491 26.804 52.0091 27.32 52.7531 27.704C53.5211 28.088 54.3491 28.28 55.2371 28.28C55.6451 28.28 56.1611 28.22 56.7851 28.1C57.4331 27.98 58.0331 27.752 58.5851 27.416C58.5851 28.256 58.5851 29.132 58.5851 30.044C58.6091 30.956 58.6211 31.844 58.6211 32.708C58.6211 33.62 58.6091 34.508 58.5851 35.372C58.5851 36.236 58.5851 37.1 58.5851 37.964C57.2411 38.252 55.8731 38.396 54.4811 38.396C52.3691 38.396 50.4731 38.048 48.7931 37.352C47.1371 36.656 45.7211 35.66 44.5451 34.364C43.3931 33.044 42.5051 31.46 41.8811 29.612C41.2811 27.74 40.9811 25.652 40.9811 23.348C40.9811 21.14 41.2691 19.112 41.8451 17.264C42.4211 15.392 43.2731 13.784 44.4011 12.44C45.5531 11.072 46.9691 10.016 48.6491 9.272C50.3531 8.504 52.3211 8.12 54.5531 8.12ZM77.5804 8.12C78.4444 8.12 79.1884 8.18 79.8124 8.3C80.4604 8.396 81.0604 8.54 81.6124 8.732C81.6124 9.14 81.6124 9.572 81.6124 10.028C81.6364 10.484 81.6484 10.976 81.6484 11.504C81.6484 12.032 81.6364 12.596 81.6124 13.196C81.6124 13.772 81.6124 14.312 81.6124 14.816C80.7004 14.24 79.6084 13.952 78.3364 13.952C77.1364 13.952 76.1284 14.18 75.3124 14.636C74.5204 15.068 73.8724 15.632 73.3684 16.328C72.8884 17.024 72.5404 17.792 72.3244 18.632C72.1324 19.448 72.0364 20.228 72.0364 20.972C72.0364 21.98 72.1924 22.928 72.5044 23.816C72.8164 24.704 73.2484 25.484 73.8004 26.156C74.3764 26.804 75.0364 27.32 75.7804 27.704C76.5484 28.088 77.3764 28.28 78.2644 28.28C78.6724 28.28 79.1884 28.22 79.8124 28.1C80.4604 27.98 81.0604 27.752 81.6124 27.416C81.6124 28.256 81.6124 29.132 81.6124 30.044C81.6364 30.956 81.6484 31.844 81.6484 32.708C81.6484 33.62 81.6364 34.508 81.6124 35.372C81.6124 36.236 81.6124 37.1 81.6124 37.964C80.2684 38.252 78.9004 38.396 77.5084 38.396C75.3964 38.396 73.5004 38.048 71.8204 37.352C70.1644 36.656 68.7484 35.66 67.5724 34.364C66.4204 33.044 65.5324 31.46 64.9084 29.612C64.3084 27.74 64.0084 25.652 64.0084 23.348C64.0084 21.14 64.2964 19.112 64.8724 17.264C65.4484 15.392 66.3004 13.784 67.4284 12.44C68.5804 11.072 69.9964 10.016 71.6764 9.272C73.3804 8.504 75.3484 8.12 77.5804 8.12ZM82.0669 38L87.3949 8.552H96.2869L101.579 38H95.4949L94.5949 32.096H89.0509L88.1869 38H82.0669ZM90.0229 25.652H93.6229L91.8229 13.772L90.0229 25.652ZM108.641 8.552C108.569 11.84 108.509 14.552 108.461 16.688C108.437 18.824 108.413 20.624 108.389 22.088C108.365 23.528 108.353 24.74 108.353 25.724C108.353 26.708 108.353 27.704 108.353 28.712L114.005 28.496C114.053 29.288 114.089 30.068 114.113 30.836C114.137 31.604 114.149 32.372 114.149 33.14C114.149 33.932 114.137 34.736 114.113 35.552C114.089 36.344 114.053 37.16 114.005 38H102.377C102.449 34.64 102.497 31.196 102.521 27.668C102.569 24.14 102.593 20.696 102.593 17.336C102.593 15.776 102.593 14.264 102.593 12.8C102.593 11.336 102.581 9.92 102.557 8.552H108.641ZM128.241 8.12C129.105 8.12 129.849 8.18 130.473 8.3C131.121 8.396 131.721 8.54 132.273 8.732C132.273 9.14 132.273 9.572 132.273 10.028C132.297 10.484 132.309 10.976 132.309 11.504C132.309 12.032 132.297 12.596 132.273 13.196C132.273 13.772 132.273 14.312 132.273 14.816C131.361 14.24 130.269 13.952 128.997 13.952C127.797 13.952 126.789 14.18 125.973 14.636C125.181 15.068 124.533 15.632 124.029 16.328C123.549 17.024 123.201 17.792 122.985 18.632C122.793 19.448 122.697 20.228 122.697 20.972C122.697 21.98 122.853 22.928 123.165 23.816C123.477 24.704 123.909 25.484 124.461 26.156C125.037 26.804 125.697 27.32 126.441 27.704C127.209 28.088 128.037 28.28 128.925 28.28C129.333 28.28 129.849 28.22 130.473 28.1C131.121 27.98 131.721 27.752 132.273 27.416C132.273 28.256 132.273 29.132 132.273 30.044C132.297 30.956 132.309 31.844 132.309 32.708C132.309 33.62 132.297 34.508 132.273 35.372C132.273 36.236 132.273 37.1 132.273 37.964C130.929 38.252 129.561 38.396 128.169 38.396C126.057 38.396 124.161 38.048 122.481 37.352C120.825 36.656 119.409 35.66 118.233 34.364C117.081 33.044 116.193 31.46 115.569 29.612C114.969 27.74 114.669 25.652 114.669 23.348C114.669 21.14 114.957 19.112 115.533 17.264C116.109 15.392 116.961 13.784 118.089 12.44C119.241 11.072 120.657 10.016 122.337 9.272C124.041 8.504 126.009 8.12 128.241 8.12ZM153.247 8.516C153.295 12.02 153.367 15.056 153.463 17.624C153.559 20.168 153.607 22.34 153.607 24.14C153.607 25.316 153.571 26.492 153.499 27.668C153.427 28.82 153.271 29.924 153.031 30.98C152.791 32.036 152.443 33.02 151.987 33.932C151.555 34.82 150.967 35.6 150.223 36.272C149.503 36.944 148.603 37.472 147.523 37.856C146.443 38.216 145.159 38.396 143.671 38.396C142.135 38.396 140.815 38.204 139.711 37.82C138.631 37.412 137.719 36.872 136.975 36.2C136.231 35.528 135.631 34.736 135.175 33.824C134.743 32.888 134.407 31.892 134.167 30.836C133.927 29.78 133.771 28.688 133.699 27.56C133.627 26.432 133.591 25.304 133.591 24.176C133.591 23.288 133.603 22.34 133.627 21.332C133.651 20.324 133.687 19.196 133.735 17.948C133.783 16.7 133.831 15.308 133.879 13.772C133.951 12.236 134.023 10.496 134.095 8.552H140.431C140.359 10.712 140.299 12.548 140.251 14.06C140.203 15.548 140.155 16.796 140.107 17.804C140.083 18.812 140.059 19.616 140.035 20.216C140.035 20.792 140.023 21.236 139.999 21.548C139.999 21.86 139.999 22.088 139.999 22.232C139.999 22.352 139.999 22.448 139.999 22.52C139.999 24.848 140.263 26.6 140.791 27.776C141.319 28.952 142.267 29.54 143.635 29.54C145.027 29.54 145.963 28.904 146.443 27.632C146.947 26.36 147.199 24.428 147.199 21.836C147.199 21.716 147.199 21.584 147.199 21.44C147.199 21.272 147.187 21.02 147.163 20.684C147.163 20.348 147.151 19.904 147.127 19.352C147.127 18.776 147.103 18.02 147.055 17.084C147.031 16.124 146.995 14.96 146.947 13.592C146.899 12.2 146.839 10.52 146.767 8.552L153.247 8.516ZM161.552 8.552C161.48 11.84 161.42 14.552 161.372 16.688C161.348 18.824 161.324 20.624 161.3 22.088C161.276 23.528 161.264 24.74 161.264 25.724C161.264 26.708 161.264 27.704 161.264 28.712L166.916 28.496C166.964 29.288 167 30.068 167.024 30.836C167.048 31.604 167.06 32.372 167.06 33.14C167.06 33.932 167.048 34.736 167.024 35.552C167 36.344 166.964 37.16 166.916 38H155.288C155.36 34.64 155.408 31.196 155.432 27.668C155.48 24.14 155.504 20.696 155.504 17.336C155.504 15.776 155.504 14.264 155.504 12.8C155.504 11.336 155.492 9.92 155.468 8.552H161.552ZM167.391 38L172.719 8.552H181.611L186.903 38H180.819L179.919 32.096H174.375L173.511 38H167.391ZM175.347 25.652H178.947L177.147 13.772L175.347 25.652ZM199.731 15.212H195.591C195.543 17.348 195.507 19.52 195.483 21.728C195.459 23.912 195.447 26.276 195.447 28.82C195.447 30.452 195.447 31.772 195.447 32.78C195.447 33.764 195.447 34.58 195.447 35.228C195.447 35.852 195.447 36.368 195.447 36.776C195.471 37.16 195.483 37.568 195.483 38H189.435C189.459 36.944 189.483 35.852 189.507 34.724C189.531 33.572 189.543 32.336 189.543 31.016C189.567 29.672 189.579 28.232 189.579 26.696C189.603 25.136 189.615 23.42 189.615 21.548C189.615 20.18 189.615 18.992 189.615 17.984C189.615 16.976 189.603 16.052 189.579 15.212H185.439V8.552H199.731V15.212ZM210.542 8.12C214.118 8.12 216.758 9.392 218.462 11.936C220.166 14.48 221.018 18.176 221.018 23.024C221.018 27.944 220.178 31.736 218.498 34.4C216.842 37.064 214.19 38.396 210.542 38.396C208.742 38.396 207.182 38.06 205.862 37.388C204.542 36.692 203.45 35.696 202.586 34.4C201.722 33.08 201.086 31.472 200.678 29.576C200.27 27.656 200.066 25.472 200.066 23.024C200.066 18.104 200.918 14.396 202.622 11.9C204.326 9.38 206.966 8.12 210.542 8.12ZM210.542 29.108C211.31 29.108 211.982 28.94 212.558 28.604C213.158 28.244 213.65 27.764 214.034 27.164C214.418 26.54 214.706 25.808 214.898 24.968C215.09 24.104 215.186 23.156 215.186 22.124C215.186 21.092 215.09 20.144 214.898 19.28C214.706 18.392 214.418 17.624 214.034 16.976C213.65 16.328 213.158 15.824 212.558 15.464C211.982 15.104 211.31 14.924 210.542 14.924C209.774 14.924 209.102 15.116 208.526 15.5C207.974 15.86 207.494 16.364 207.086 17.012C206.702 17.66 206.414 18.428 206.222 19.316C206.03 20.18 205.934 21.116 205.934 22.124C205.934 23.156 206.03 24.104 206.222 24.968C206.414 25.808 206.702 26.54 207.086 27.164C207.494 27.764 207.974 28.244 208.526 28.604C209.102 28.94 209.774 29.108 210.542 29.108ZM222.472 38C222.544 35.72 222.592 33.452 222.616 31.196C222.64 28.916 222.652 26.756 222.652 24.716C222.652 21.812 222.628 19.052 222.58 16.436C222.556 13.82 222.52 11.192 222.472 8.552C223.648 8.432 224.824 8.336 226 8.264C227.2 8.168 228.412 8.12 229.636 8.12C231.388 8.12 233.032 8.252 234.568 8.516C236.104 8.756 237.436 9.224 238.564 9.92C239.692 10.592 240.58 11.528 241.228 12.728C241.9 13.928 242.236 15.476 242.236 17.372C242.236 19.724 241.744 21.572 240.76 22.916C239.8 24.26 238.492 25.268 236.836 25.94L242.704 38H236.296L231.508 27.02C230.524 27.092 229.504 27.128 228.448 27.128C228.448 28.976 228.46 30.788 228.484 32.564C228.508 34.34 228.58 36.152 228.7 38H222.472ZM228.448 21.656C229.192 21.728 229.876 21.764 230.5 21.764C232.132 21.764 233.284 21.464 233.956 20.864C234.652 20.24 235 19.316 235 18.092C235 17.348 234.892 16.748 234.676 16.292C234.484 15.836 234.208 15.476 233.848 15.212C233.512 14.948 233.104 14.768 232.624 14.672C232.168 14.576 231.676 14.528 231.148 14.528C230.764 14.528 230.332 14.552 229.852 14.6C229.396 14.624 228.928 14.672 228.448 14.744V21.656Z" fill="black"/>
</svg>
